<svg width="131" height="113" viewBox="0 0 131 113" fill="none" xmlns="http://www.w3.org/2000/svg">
<path fill-rule="evenodd" clip-rule="evenodd" d="M91.21 12C90.3998 12 89.5954 12.0154 88.7971 12.0459C86.6442 4.95776 81.7014 0 75.9481 0C70.2175 0 65.291 4.9187 63.1247 11.9621C61.7387 10.9281 60.2223 9.97443 58.5908 9.1283C47.8048 3.53461 36.0723 4.763 32.3855 11.872C28.6987 18.981 34.4539 29.2786 45.2399 34.8723C47.3844 35.9845 49.5664 36.827 51.7151 37.4072C51.7186 37.5435 51.7238 37.6796 51.7306 37.8155C43.9236 38.4888 37.9206 42.675 38.1599 47.412C38.36 51.3714 42.8604 54.5084 48.908 55.3632C39.6738 59.3683 33.2639 65.7916 31.9566 73.1909C29.4915 74.0812 26.5235 74.8519 23.0925 74.9073C19.2025 74.97 14.8379 73.319 10.9562 71.8505C6.32875 70.1 2.38735 68.6091 0.753559 70.5901C-1.88829 73.7933 2.65431 81.273 10.6585 86.6725C9.25612 88.519 8.67885 90.5107 9.2184 92.3334C10.4722 96.5701 17.2843 98.2892 24.4336 96.1733C25.838 95.7577 27.151 95.225 28.3447 94.6051C28.7385 96.1069 29.5192 97.3162 30.6922 98.0646C33.8964 100.109 38.9846 98.0496 42.8974 93.4326C45.6453 95.22 48.8122 96.7482 52.2976 97.9536C49.5998 104.35 49.53 110.104 52.5056 111.952C56.2588 114.284 63.4354 109.518 68.5353 101.308C68.6088 101.19 68.6815 101.071 68.7534 100.952C69.5659 100.984 70.385 101 71.21 101C79.5968 101 87.3731 99.3457 93.7687 96.5246C99.8461 103.478 108.17 110.369 111.029 108.485C113.942 106.565 110.307 96.1032 106.03 87.814C109.016 84.2959 110.71 80.2732 110.71 76C110.71 70.3369 107.735 65.1136 102.72 60.922C118.921 57.8035 130.71 48.2731 130.71 37C130.71 23.1929 113.025 12 91.21 12ZM84.8865 18.3313C84.9273 17.8949 84.9481 17.4506 84.9481 17C84.9481 10.9249 81.1426 6 76.4481 6C71.7537 6 67.9481 10.9249 67.9481 17C67.9481 19.6431 68.6685 22.0685 69.869 23.9653C65.5042 27.431 63.21 32.163 63.21 37.5C63.21 44.1573 66.7797 50.2366 73.4854 54.0162C73.3132 54.0118 73.1408 54.0084 72.9679 54.0057C72.716 54.0019 72.4633 54 72.21 54C54.2608 54 39.71 63.6259 39.71 75.5C39.71 87.3741 54.2608 97 72.21 97C90.1592 97 104.71 87.3741 104.71 75.5C104.71 68.2839 99.3362 61.8983 91.0916 57.9986C108.589 57.8708 122.71 48.9661 122.71 38C122.71 26.9543 108.383 18 90.71 18C88.6625 18 86.7204 18.1135 84.8865 18.3313ZM86.9481 41C90.2619 41 92.9481 38.3137 92.9481 35C92.9481 31.6863 90.2619 29 86.9481 29C83.6344 29 80.9481 31.6863 80.9481 35C80.9481 38.3137 83.6344 41 86.9481 41Z" fill="#B47D6B"/>
</svg>
